<svg width="19" height="19" viewBox="0 0 19 19" fill="none" xmlns="http://www.w3.org/2000/svg">
<g id="Frame" clip-path="url(#clip0_1_56)">
<g id="Group">
<g id="Group_2">
<g id="Group_3">
<path id="Vector" d="M17.329 12.492C16.228 12.492 15.147 12.3198 14.1226 11.9813C13.6119 11.8071 13.0304 11.9423 12.6972 12.2818L10.6753 13.8082C8.3304 12.5565 6.886 11.1125 5.65139 8.78525L7.13283 6.81598C7.51772 6.43161 7.65578 5.87012 7.49038 5.34329C7.15039 4.31352 6.97769 3.23302 6.97769 2.1316C6.97774 1.33592 6.33041 0.688599 5.53478 0.688599H2.23233C1.43675 0.688599 0.789429 1.33592 0.789429 2.1315C0.789429 11.2516 8.20897 18.6711 17.329 18.6711C18.1246 18.6711 18.7719 18.0237 18.7719 17.2281V13.9349C18.7719 13.1393 18.1246 12.492 17.329 12.492ZM17.7729 17.2281C17.7729 17.473 17.5738 17.672 17.329 17.672C8.75968 17.672 1.78849 10.7008 1.78849 2.13155C1.78849 1.88668 1.98751 1.68766 2.23238 1.68766H5.53483C5.7797 1.68766 5.97872 1.88668 5.97872 2.13155C5.97872 3.33984 6.16848 4.5257 6.53969 5.64913C6.59139 5.815 6.54943 5.98668 6.38164 6.16135L4.66455 8.43543C4.54945 8.5881 4.53137 8.7925 4.61772 8.96273C6.01919 11.7174 7.72213 13.4203 10.4963 14.8418C10.665 14.93 10.8719 14.9116 11.0251 14.7959L13.3514 13.0335C13.4689 12.916 13.6451 12.874 13.8041 12.9281C14.9353 13.3018 16.1212 13.4911 17.329 13.4911C17.5738 13.4911 17.7729 13.6901 17.7729 13.935V17.2281Z" fill="white"/>
</g>
</g>
</g>
</g>
<defs>
<clipPath id="clip0_1_56">
<rect width="17.9825" height="17.9825" fill="white" transform="translate(0.789429 0.688599)"/>
</clipPath>
</defs>
</svg>
